<svg xmlns="http://www.w3.org/2000/svg" viewBox="0 0 790 320.48"><defs><style>.cls-1{fill:#48a018;}.cls-2{fill:#55585a;}.cls-3{fill:#005fc5;}.cls-4{fill:#002984;}</style></defs><title>logo</title><g id="Capa_7" data-name="Capa 7"><path class="cls-1" d="M217.54,54.94c-.82-1.59-2.93-1.9-6.45-1.9H106.73c-12.35,0-23.07,1.52-31.47,5.4A56.08,56.08,0,0,0,54.88,73.15,53.54,53.54,0,0,0,44,94.6a97.13,97.13,0,0,0-3.2,25.08V305.16c0,3.14.76,5.23,2.2,6.21s3.6,1.55,6.36,1.55H61.27C69.15,312.4,86,308.3,86,284.18V198.61H197.36c3.39,0,5.28-.65,6.18-2.26a12.34,12.34,0,0,0,1.31-6.27V169c0-3.57-.43-5.77-1.31-6.82s-2.79-1.78-6.18-1.78H86V117.1c0-7.89,2-14,6-18.14,3.64-4,10.33-6.14,19.8-6.14h99.36c3.3,0,5.37-.49,6.32-1.84,1.13-1,1.62-3.39,1.62-6.67v-23c0-2.88-.49-5.11-1.49-6.38" transform="translate(-40.83 -53.03)"/></g><g id="Capa_6" data-name="Capa 6"><path class="cls-2" d="M279.12,365.94c0,4.54-1.21,5.14-5.76,5.14H249.43c-3.94,0-5.76-.91-5.76-5.14V166c0-3.63.91-5.46,4.85-7.27,20-8.79,43.93-11.51,63.92-11.51,52.72,0,73.62,36.35,73.62,82.7,0,45.14-23,82.72-70.89,82.72a148.47,148.47,0,0,1-36.06-4.25ZM307.3,177.49c-8.18,0-20.91,1.82-28.18,4.24v96.35a110,110,0,0,0,29.69,4.24c23.64,0,40.6-13.33,40.6-52.72,0-38.48-16.06-52.11-42.11-52.11" transform="translate(-40.83 -53.03)"/></g><g id="Capa_5" data-name="Capa 5"><path class="cls-2" d="M538.59,302.32c-17.87,8.17-42.41,10.6-61.8,10.6-53.32,0-67.86-23-67.86-50.6,0-28.18,17.87-54.23,66-54.23h33.93v-5.15c0-15.46-5.14-26.67-31.2-26.67-13.64,0-32.11,3-42.11,6.07-4.25,1.21-6.06.6-7-3L424.38,162c-.91-3.34-.31-5.16,2.72-6.36,17-6.37,38.78-8.78,56.35-8.78,41.81,0,60.9,19.38,60.9,54.53v90.89c0,4.84-1.51,7.87-5.76,10m-30-67.26H479.51c-13.33,0-34.54,1.81-34.54,26,0,17.27,12.72,23.33,32.11,23.33,5.76,0,20.91-.92,31.51-4.86Z" transform="translate(-40.83 -53.03)"/></g><g id="Capa_4" data-name="Capa 4"><path class="cls-2" d="M652.42,335.33c-9.4,27.87-25.15,38.18-50.6,38.18a95.27,95.27,0,0,1-26.66-3.64c-4.24-.91-5.15-2.12-4.24-5.76l4.24-18.48c.91-3.94,2.42-3.94,6.06-3.33,6.67,1.51,9.7,2.13,14.85,2.13,14.24,0,21.81-4.55,26.66-19.09l6.36-19.08h-7.27c-7.27,0-11.51-.91-15.14-12.43L561.23,154.77c-.91-3,.6-4.24,3.33-4.24h27.87c4.24,0,5.45.91,6.36,3.94l20.6,69.68L635.15,279H637l17-55.44,22.42-68.77c.91-3,1.82-4.24,6.06-4.24H710c2.73,0,3.94,1.51,3,3.94L652.42,335.64Z" transform="translate(-40.83 -53.03)"/></g><g id="Capa_3" data-name="Capa 3"><path class="cls-3" d="M760.72,53H706a70,70,0,0,1,70,70c0,.05,0,.11,0,.16s0,.05,0,.08v47.5a36.8,36.8,0,0,0,36.8,36.8h9.1a8.92,8.92,0,0,0,8.92-8.93V123.15A70.11,70.11,0,0,0,760.72,53" transform="translate(-40.83 -53.03)"/></g><g id="Capa_2" data-name="Capa 2"><path class="cls-4" d="M706,53H690.24a14,14,0,0,0-14,14v4.06a36.8,36.8,0,0,0,36.8,36.8h47.51A15.43,15.43,0,0,1,776,123.21c0-.05,0-.11,0-.16a70,70,0,0,0-70-70" transform="translate(-40.83 -53.03)"/></g></svg>