<?xml version="1.0" encoding="UTF-8"?>
<svg width="310px" height="128px" viewBox="0 0 310 128" version="1.1" xmlns="http://www.w3.org/2000/svg" xmlns:xlink="http://www.w3.org/1999/xlink">
    <!-- Generator: Sketch 64 (93537) - https://sketch.com -->
    <title>logo_blanco</title>
    <desc>Created with Sketch.</desc>
    <defs>
        <polygon id="path-1" points="0 0.0969735213 70.0141784 0.0969735213 70.0141784 100.510793 0 100.510793"></polygon>
    </defs>
    <g id="Page-1" stroke="none" stroke-width="1" fill="none" fill-rule="evenodd">
        <g id="Desktop" transform="translate(-405.000000, -373.000000)">
            <g id="logo_blanco" transform="translate(405.000000, 373.000000)">
                <g id="Group-3">
                    <g id="Fill-1-Clipped">
                        <mask id="mask-2" fill="white">
                            <use xlink:href="#path-1"></use>
                        </mask>
                        <g id="path-1"></g>
                        <path d="M69.4311878,0.832634719 C69.1097441,0.218928051 68.2791823,0.0969735213 66.8955779,0.0969735213 L25.8945665,0.0969735213 C21.0389734,0.0969735213 16.8282638,0.685109077 13.5259813,2.18396959 C10.2815986,3.57464464 7.55831362,5.52788412 5.519843,7.87059131 C3.46540005,10.345088 2.04985091,13.0162857 1.25522672,16.1575983 C0.420671655,19.2536698 -0.000598962962,22.4638277 -0.000598962962,25.8490494 L-0.000598962962,97.5111048 C-0.000598962962,98.7247492 0.298882518,99.5331895 0.865900789,99.9128224 C1.48283264,100.337696 2.27945338,100.510793 3.3615798,100.510793 L8.03149438,100.510793 C11.1281329,100.308191 17.7326978,98.7247492 17.7326978,89.4070295 L17.7326978,56.347517 L61.4989217,56.347517 C62.8326124,56.347517 63.5713334,56.0937728 63.9287146,55.4741651 C64.2741167,54.8938975 64.4438228,54.1110282 64.4438228,53.0468768 L64.4438228,44.8936261 C64.4438228,43.5167203 64.2741167,42.6669725 63.9287146,42.2578348 C63.5713334,41.8368949 62.8326124,41.5674148 61.4989217,41.5674148 L17.7326978,41.5674148 L17.7326978,24.8517761 C17.7326978,21.8048799 18.5093531,19.4425026 20.074643,17.8452916 C21.5061645,16.307091 24.1356119,15.4750463 27.8571684,15.4750463 L66.8955779,15.4750463 C68.1933308,15.4750463 69.0039274,15.2842465 69.381274,14.7629892 C69.8205135,14.3597525 70.0141784,13.4529616 70.0141784,12.182274 L70.0141784,3.29729643 C70.0141784,2.18396959 69.8205135,1.32241985 69.4311878,0.832634719" id="Fill-1" fill="#FFFFFF" fill-rule="nonzero" mask="url(#mask-2)"></path>
                    </g>
                </g>
                <path d="M93.9329061,122.370201 C93.9329061,124.164632 93.4633196,124.4 91.6994102,124.4 L82.4043579,124.4 C80.8752418,124.4 80.1688889,124.045942 80.1688889,122.370201 L80.1688889,43.3589161 C80.1688889,41.9205549 80.5240384,41.2003688 82.0531543,40.4862174 C89.8151444,37.0120222 99.110197,35.9377778 106.87416,35.9377778 C127.342611,35.9377778 135.457778,50.3012713 135.457778,68.6177431 C135.457778,86.4554318 126.517875,101.29972 107.93369,101.29972 C103.697545,101.29972 99.3449903,100.939627 93.9329061,99.6199561 L93.9329061,122.370201 Z M104.873485,47.9053439 C101.696869,47.9053439 96.7543717,48.6235186 93.9329061,49.5790733 L93.9329061,87.6523896 C98.7550475,88.9680375 102.284839,89.3281305 105.461454,89.3281305 C114.638123,89.3281305 121.224174,84.0595048 121.224174,68.4970416 C121.224174,53.2946715 114.9913,47.9053439 104.873485,47.9053439 L104.873485,47.9053439 Z" id="Fill-4" fill="#FFFFFF" fill-rule="nonzero"></path>
                <path d="M193.923013,98.2230592 C186.624739,101.354401 176.608801,102.284444 168.690236,102.284444 C146.924035,102.284444 140.986667,93.4636541 140.986667,82.9056125 C140.986667,72.1135977 148.282867,62.1365899 167.949621,62.1365899 L181.799331,62.1365899 L181.799331,60.1673154 C181.799331,54.2438933 179.701958,49.9543843 169.06573,49.9543843 C163.495557,49.9543843 155.95456,51.1164514 151.871842,52.2765685 C150.137516,52.7386657 149.394826,52.5085921 149.027631,51.1164514 L147.29538,44.5008583 C146.924035,43.2237548 147.168832,42.5276843 148.409414,42.0616878 C155.334269,39.6283661 164.238247,38.7022222 171.414123,38.7022222 C188.479389,38.7022222 196.275556,46.1269723 196.275556,59.5843321 L196.275556,94.3917479 C196.275556,96.2498851 195.657339,97.4100025 193.923013,98.2230592 L193.923013,98.2230592 Z M181.679007,72.4665074 L169.806345,72.4665074 C164.364795,72.4665074 155.701465,73.1586783 155.701465,82.439616 C155.701465,89.0552087 160.896143,91.3793428 168.814709,91.3793428 C171.167251,91.3793428 177.349417,91.0283827 181.679007,89.5192556 L181.679007,72.4665074 Z" id="Fill-6" fill="#FFFFFF" fill-rule="nonzero"></path>
                <path d="M239.420708,112.018132 C235.83853,123.076414 229.8379,127.164444 220.14085,127.164444 C217.714652,127.164444 213.789748,126.922071 209.981022,125.720304 C208.364202,125.360783 208.017602,124.880076 208.364202,123.435935 L209.981022,116.104142 C210.323749,114.542854 210.904643,114.542854 212.291042,114.783207 C214.829547,115.383081 215.985525,115.625455 217.948945,115.625455 C223.374491,115.625455 226.257659,113.819773 228.104901,108.053308 L230.527227,100.481162 L227.758301,100.481162 C224.989375,100.481162 223.374491,100.123661 221.986155,95.5508843 L204.669719,40.384697 C204.323119,39.1809096 204.90014,38.7022222 205.939939,38.7022222 L216.562546,38.7022222 C218.17743,38.7022222 218.642145,39.0597229 218.986808,40.2635103 L226.83468,67.9102271 L232.839184,89.6632323 L233.532383,89.6632323 L239.995792,67.665834 L248.5388,40.384697 C248.887336,39.1809096 249.230063,38.7022222 250.84882,38.7022222 L261.353312,38.7022222 C262.393111,38.7022222 262.853954,39.3020963 262.50929,40.2635103 L239.420708,112.137299 L239.420708,112.018132 Z" id="Fill-8" fill="#FFFFFF" fill-rule="nonzero"></path>
                <path d="M281.670436,0 L259.857778,0 C275.272461,0 287.766639,12.3358325 287.766639,27.5522963 C287.766639,27.5723285 287.766639,27.5923607 287.764613,27.6143961 C287.766639,27.6244122 287.766639,27.6324251 287.766639,27.6464477 L287.766639,46.3364961 C287.766639,54.335356 294.332715,60.8177778 302.431955,60.8177778 L306.059297,60.8177778 C308.023854,60.8177778 309.617778,59.2452495 309.617778,57.3021256 L309.617778,27.5883543 C309.617778,12.3538615 297.105373,0 281.670436,0" id="Fill-10" fill="#FFFFFF" fill-rule="nonzero"></path>
                <path d="M281.670436,0 L259.857778,0 C275.272461,0 287.766639,12.3358325 287.766639,27.5522963 C287.766639,27.5723285 287.766639,27.5923607 287.764613,27.6143961 C287.766639,27.6244122 287.766639,27.6324251 287.766639,27.6464477 L287.766639,46.3364961 C287.766639,54.335356 294.332715,60.8177778 302.431955,60.8177778 L306.059297,60.8177778 C308.023854,60.8177778 309.617778,59.2452495 309.617778,57.3021256 L309.617778,27.5883543 C309.617778,12.3538615 297.105373,0 281.670436,0 Z" id="Stroke-12"></path>
                <path d="M257.567149,2.76444444 L251.456272,2.76444444 C249.738759,2.76444444 248.212519,3.57663159 247.218688,4.84203924 C246.47923,5.78257204 246.035556,6.97177446 246.035556,8.26726314 L246.035556,9.86556726 C246.035556,17.8711256 252.428412,24.3626067 260.313988,24.3626067 L278.749158,24.3626067 C282.044181,24.3626067 284.720031,27.0658864 284.735806,30.4088889 C284.735806,30.3868295 284.737778,30.3667755 284.737778,30.3467215 C284.737778,15.1137001 272.571236,2.76444444 257.567149,2.76444444" id="Fill-14" fill="#FFFFFF" fill-rule="nonzero"></path>
            </g>
        </g>
    </g>
</svg>